<svg width="615" height="615" viewBox="0 0 615 615" fill="none" xmlns="http://www.w3.org/2000/svg">
<path fill-rule="evenodd" clip-rule="evenodd" d="M10.837 280.859C-3.61236 295.309 -3.61235 318.736 10.8371 333.185L280.859 603.208C295.309 617.657 318.736 617.657 333.185 603.208L603.208 333.185C617.657 318.736 617.657 295.309 603.208 280.859L333.185 10.837C318.736 -3.61236 295.309 -3.61234 280.859 10.837L10.837 280.859Z" fill="white"/>
<path fill-rule="evenodd" clip-rule="evenodd" d="M10.837 280.859C-3.61236 295.309 -3.61235 318.736 10.8371 333.185L280.859 603.208C295.309 617.657 318.736 617.657 333.185 603.208L603.208 333.185C617.657 318.736 617.657 295.309 603.208 280.859L333.185 10.837C318.736 -3.61236 295.309 -3.61234 280.859 10.837L10.837 280.859ZM463.281 222.043H515.148C517.842 222.043 519.863 223.387 522.558 226.749C523.231 228.766 523.231 231.455 521.884 233.472C456.544 325.583 397.941 380.043 343.379 400.213C336.43 402.735 328.887 403.483 316.862 404.676L314.414 404.919C325.866 419.038 346.747 431.14 375.712 441.226C379.08 441.898 381.101 445.932 380.427 448.621C379.754 451.311 377.059 454 373.691 454H167.569C164.201 454 161.507 451.311 160.833 447.949C160.159 444.587 162.18 441.226 165.548 440.553C198.555 430.468 219.436 417.021 230.888 398.196C212.7 392.145 196.534 380.043 185.083 364.579C184.409 369.957 183.062 376.681 181.041 383.404C179.694 386.094 176.999 388.111 174.305 388.111H172.284C168.916 386.766 166.895 382.732 168.243 379.37C176.999 350.46 167.569 339.03 136.583 337.013H135.91L135.649 336.955C123.255 334.208 86.1105 325.976 92.799 286.587C94.8199 273.14 102.903 262.383 114.354 257.004C129.847 250.281 146.014 253.643 164.875 267.762C173.768 253.559 190.489 254.462 206.77 255.34L206.772 255.34C208.988 255.46 211.195 255.579 213.374 255.66C216.068 232.128 233.582 213.302 255.811 207.251L231.561 183.047C228.867 180.357 228.867 176.323 231.561 173.634L265.241 140.017C266.589 138.672 267.936 138 269.957 138C271.977 138 273.325 138.672 274.672 140.017L308.352 173.634C309.699 174.979 310.373 176.323 310.373 178.34C310.373 180.357 309.699 181.702 308.352 183.047L284.102 207.251C306.331 213.302 323.171 232.128 326.539 254.987C401.309 251.626 445.767 241.54 457.892 224.732C459.239 223.387 461.26 222.043 463.281 222.043ZM104.924 289.277C102.903 303.396 104.924 317.515 137.257 324.238C150.055 324.911 160.159 327.6 166.895 332.306L164.875 322.221C160.833 298.689 159.486 287.932 159.486 282.553C143.319 269.106 130.521 264.4 119.07 269.779C111.66 273.14 106.271 280.536 104.924 289.277ZM252.443 363.234C251.769 363.234 251.096 363.066 250.422 362.898C249.748 362.73 249.075 362.562 248.401 362.562C226.172 356.511 209.332 338.357 205.291 315.498C204.617 312.136 201.249 309.447 197.207 310.119C193.839 310.792 191.145 314.153 191.819 318.187C197.207 347.098 219.436 371.302 250.422 377.353C253.79 378.026 257.832 376.009 258.505 371.974C258.505 367.268 256.484 363.906 252.443 363.234ZM276.693 379.37C267.936 379.37 268.609 365.923 277.366 365.923C282.066 365.923 286.139 365.715 289.616 365.536C300.089 365 305.152 364.74 305.657 371.302C306.331 375.336 303.637 378.698 299.595 378.698C292.185 379.37 284.102 379.37 276.693 379.37ZM252.712 405.995C255.523 407.223 256.826 410.508 255.353 413.196C250.246 422.509 242.777 430.562 233.014 437.847C230.556 439.681 227.089 439.007 225.367 436.471C223.645 433.935 224.321 430.5 226.77 428.654C234.998 422.449 241.004 415.912 245.124 408.723C246.648 406.064 249.9 404.767 252.712 405.995ZM306.331 248.465C306.331 244.789 303.345 241.809 299.662 241.809H241.867C238.184 241.809 235.199 244.789 235.199 248.465C235.199 252.142 238.184 255.122 241.867 255.122H299.662C303.345 255.122 306.331 252.142 306.331 248.465ZM260.841 177.466L268.542 169.78C270.712 167.613 270.712 164.101 268.542 161.935C266.372 159.769 262.853 159.769 260.683 161.935L246.747 175.845C245.85 176.741 245.85 178.192 246.747 179.087L260.683 192.997C262.853 195.164 266.372 195.164 268.542 192.997C270.712 190.831 270.712 187.319 268.542 185.153L260.841 177.466Z" fill="#09D6A5"/>
</svg>
